<svg width="60" height="60" viewBox="0 0 60 60" fill="none" xmlns="http://www.w3.org/2000/svg">
<g clip-path="url(#clip0_44_510)">
<path d="M58.6567 29.8281C58.6567 45.7496 45.7496 58.6567 29.8281 58.6567C13.9066 58.6567 1 45.7496 1 29.8281C1 13.9066 13.9066 1 29.8281 1C45.7496 1 58.6567 13.9066 58.6567 29.8281Z" fill="#2DCA73"/>
<path d="M16.1582 25.2165C18.1527 25.3734 19.8177 25.9074 21.2318 26.8075C22.8102 27.8122 24.1248 29.3042 25.2359 31.3444L25.9561 32.9927L26.5697 34.3969L27.3022 33.0509L27.7386 32.2489L27.7388 32.2485C31.5828 25.1766 38.6955 20.5552 46.6193 19.8455C41.6905 22.1391 37.6146 25.9578 35.0061 30.7531L31.4744 37.223L31.4738 37.2242L29.7979 40.3076L22.6272 40.3074L16.1582 25.2165Z" fill="white" stroke="black" stroke-width="1.5"/>
<path d="M29.9927 60C29.2273 60 28.461 59.9707 27.6933 59.9121C20.5641 59.3655 13.8496 56.2761 8.78677 51.2137C3.12057 45.547 0 38.0136 0 30C0 21.9868 3.12057 14.453 8.78677 8.78677C14.453 3.12057 21.9868 0 30 0C38.0136 0 45.547 3.12057 51.2137 8.78677C56.2761 13.8496 59.3655 20.5641 59.9121 27.6933C60.4527 34.7452 58.4889 41.7741 54.3828 47.4861C54.0051 48.0116 53.2727 48.1311 52.7472 47.7534C52.2217 47.3758 52.1022 46.6434 52.4799 46.1179C60.4166 35.078 59.187 20.0752 49.5561 10.4439C38.773 -0.339203 21.2274 -0.339203 10.4443 10.4439C-0.339203 21.2274 -0.339203 38.7726 10.4443 49.5561C20.0752 59.1866 35.0784 60.4166 46.1183 52.4794C46.6438 52.1017 47.3758 52.2217 47.7539 52.7472C48.1316 53.2727 48.0116 54.0047 47.4861 54.3828C42.3958 58.0421 36.259 60 29.9927 60Z" fill="#1C2D41"/>
<path d="M50.3853 51.5571C50.0767 51.5571 49.7746 51.4317 49.5567 51.2138C49.3388 50.9955 49.2134 50.6933 49.2134 50.3853C49.2134 50.0767 49.3388 49.7746 49.5567 49.5567C49.7746 49.3388 50.0767 49.2134 50.3853 49.2134C50.6933 49.2134 50.9955 49.3388 51.2138 49.5567C51.4317 49.7746 51.5571 50.0767 51.5571 50.3853C51.5571 50.6933 51.4317 50.9955 51.2138 51.2138C50.9955 51.4317 50.6933 51.5571 50.3853 51.5571Z" fill="#1C2D41"/>
</g>
<defs>
<clipPath id="clip0_44_510">
<rect width="60" height="60" fill="white"/>
</clipPath>
</defs>
</svg>
