<svg width="60" height="60" viewBox="0 0 60 60" fill="none" xmlns="http://www.w3.org/2000/svg">
<g clip-path="url(#clip0_44_516)">
<path d="M54.142 43.3605H5.85949C3.27064 43.3605 1.17188 41.2617 1.17188 38.6728V5.8595C1.17188 3.27064 3.27064 1.17188 5.85949 1.17188H54.142C56.7308 1.17188 58.8296 3.27064 58.8296 5.8595V38.6728C58.8296 41.2617 56.7308 43.3605 54.142 43.3605Z" fill="#F9F9F9"/>
<path d="M10.3126 14.2973C8.50035 14.2973 7.03125 12.8282 7.03125 11.016C7.03125 9.20372 8.50035 7.73462 10.3126 7.73462C12.1248 7.73462 13.5939 9.20372 13.5939 11.016C13.5939 12.8282 12.1248 14.2973 10.3126 14.2973Z" fill="#8392A5"/>
<path d="M23.4381 14.2973C21.6258 14.2973 20.1567 12.8282 20.1567 11.016C20.1567 9.20372 21.6258 7.73462 23.4381 7.73462C25.2503 7.73462 26.7194 9.20372 26.7194 11.016C26.7194 12.8282 25.2503 14.2973 23.4381 14.2973Z" fill="#8392A5"/>
<path d="M36.5631 14.2973C34.7508 14.2973 33.2817 12.8282 33.2817 11.016C33.2817 9.20372 34.7508 7.73462 36.5631 7.73462C38.3753 7.73462 39.8444 9.20372 39.8444 11.016C39.8444 12.8282 38.3753 14.2973 36.5631 14.2973Z" fill="#8392A5"/>
<path d="M49.6886 14.2973C47.8763 14.2973 46.4072 12.8282 46.4072 11.016C46.4072 9.20372 47.8763 7.73462 49.6886 7.73462C51.5008 7.73462 52.9699 9.20372 52.9699 11.016C52.9699 12.8282 51.5008 14.2973 49.6886 14.2973Z" fill="#8392A5"/>
<path d="M10.3126 27.4225C8.50035 27.4225 7.03125 25.9534 7.03125 24.1412C7.03125 22.329 8.50035 20.8599 10.3126 20.8599C12.1248 20.8599 13.5939 22.329 13.5939 24.1412C13.5939 25.9534 12.1248 27.4225 10.3126 27.4225Z" fill="#8392A5"/>
<path d="M20.1567 20.8599H26.7194V27.4225H20.1567V20.8599Z" fill="#8392A5"/>
<path d="M33.2817 20.8599H39.8444V27.4225H33.2817V20.8599Z" fill="#0AAFFF"/>
<path d="M49.6886 27.4225C47.8763 27.4225 46.4072 25.9534 46.4072 24.1412C46.4072 22.329 47.8763 20.8599 49.6886 20.8599C51.5008 20.8599 52.9699 22.329 52.9699 24.1412C52.9699 25.9534 51.5008 27.4225 49.6886 27.4225Z" fill="#8392A5"/>
<path d="M1.17188 34.7903V38.6728C1.17188 41.2617 3.27064 43.3604 5.85949 43.3604H54.142C56.7308 43.3604 58.8296 41.2617 58.8296 38.6728V34.7903H1.17188Z" fill="#2DCA73"/>
<path d="M24.3755 43.3606H35.6258V54.1421H24.3755V43.3606Z" fill="#12B058"/>
<path d="M35.626 27.4226L35.6281 47.473L39.9787 43.1844L45.4604 52.679L52.5815 48.5676L47.0996 39.073L52.9891 37.4497L35.626 27.4226Z" fill="#FFC212"/>
<path d="M54.142 0H35.2743C34.6272 0 34.1024 0.524779 34.1024 1.1719C34.1024 1.81903 34.6272 2.34381 35.2743 2.34381H54.142C56.0806 2.34381 57.6577 3.92096 57.6577 5.85952V33.6183H48.6982L39.9833 28.5856C40.565 28.5169 41.0167 28.0228 41.0167 27.4226V20.8599C41.0167 20.2128 40.4919 19.688 39.8448 19.688H33.2821C32.635 19.688 32.1102 20.2128 32.1102 20.8599V27.4226C32.1102 28.0697 32.635 28.5945 33.2821 28.5945H34.4541L34.4546 33.6183H2.34381V5.85952C2.34381 3.92096 3.92096 2.34381 5.85952 2.34381H24.7278C25.3749 2.34381 25.8997 1.81903 25.8997 1.1719C25.8997 0.524779 25.3749 0 24.7278 0H5.85952C2.62858 0 0 2.62858 0 5.85952V38.6729C0 41.9038 2.62858 44.5324 5.85952 44.5324H23.2037V52.9701H20.3521C19.705 52.9701 19.1802 53.4949 19.1802 54.142C19.1802 54.7891 19.705 55.3139 20.3521 55.3139H39.6494C40.2965 55.3139 40.8213 54.7891 40.8213 54.142C40.8213 53.4949 40.2965 52.9701 39.6494 52.9701H36.7978V47.9654L39.7217 45.0831L44.4455 53.2648C44.6009 53.534 44.8569 53.7304 45.1571 53.8108C45.257 53.8377 45.3588 53.8508 45.4604 53.8508C45.6643 53.8508 45.8667 53.7976 46.0464 53.6937L53.1673 49.5825C53.7278 49.2588 53.9199 48.5422 53.5962 47.9816L51.6047 44.5324H54.142C57.3729 44.5324 60.0015 41.9038 60.0015 38.6729V5.85952C60.0015 2.62858 57.3729 0 54.142 0ZM34.454 22.0318H38.6729V26.2507H34.454V22.0318ZM2.34381 38.6729V35.9621H34.4548L34.4555 42.1886H24.3756H5.85952C3.92096 42.1886 2.34381 40.6114 2.34381 38.6729ZM25.5475 52.9701V44.5324H34.454V52.9701H25.5475ZM45.8893 51.0781L40.9936 42.5983C40.8122 42.284 40.4954 42.0716 40.1359 42.0229C40.0835 42.0157 40.0309 42.0123 39.9786 42.0123C39.673 42.0123 39.3767 42.132 39.1559 42.3496L36.7996 44.6724L36.798 29.4527L49.9779 37.0639L46.7882 37.9431C46.4384 38.0396 46.1529 38.2926 46.0153 38.6283C45.8776 38.9641 45.9033 39.3446 46.0847 39.6589L50.9804 48.1387L45.8893 51.0781ZM54.142 42.1886H50.2515L48.8724 39.7999L53.3003 38.5793C53.7559 38.4538 54.0914 38.067 54.1514 37.5985C54.2114 37.1298 53.9841 36.671 53.575 36.4346L52.7568 35.9621H57.6577V38.6729C57.6577 40.6114 56.0806 42.1886 54.142 42.1886Z" fill="#1C2D41"/>
<path d="M10.3126 6.56274C7.85712 6.56274 5.85938 8.56049 5.85938 11.016C5.85938 13.4715 7.85712 15.4692 10.3126 15.4692C12.7681 15.4692 14.7658 13.4715 14.7658 11.016C14.7658 8.56049 12.7681 6.56274 10.3126 6.56274ZM10.3126 13.1254C9.1495 13.1254 8.20318 12.1791 8.20318 11.016C8.20318 9.85287 9.1495 8.90655 10.3126 8.90655C11.4757 8.90655 12.422 9.85287 12.422 11.016C12.422 12.1791 11.4757 13.1254 10.3126 13.1254Z" fill="#3C4858"/>
<path d="M18.9849 11.016C18.9849 13.4715 20.9826 15.4692 23.4381 15.4692C25.8936 15.4692 27.8913 13.4715 27.8913 11.016C27.8913 8.56049 25.8936 6.56274 23.4381 6.56274C20.9826 6.56274 18.9849 8.56049 18.9849 11.016ZM25.5475 11.016C25.5475 12.1791 24.6012 13.1254 23.4381 13.1254C22.275 13.1254 21.3287 12.1791 21.3287 11.016C21.3287 9.85287 22.275 8.90655 23.4381 8.90655C24.6012 8.90655 25.5475 9.85287 25.5475 11.016Z" fill="#3C4858"/>
<path d="M36.5636 15.4692C39.0191 15.4692 41.0168 13.4715 41.0168 11.016C41.0168 8.56049 39.0191 6.56274 36.5636 6.56274C34.1081 6.56274 32.1104 8.56049 32.1104 11.016C32.1104 13.4715 34.1081 15.4692 36.5636 15.4692ZM36.5636 8.90655C37.7267 8.90655 38.673 9.85287 38.673 11.016C38.673 12.1791 37.7267 13.1254 36.5636 13.1254C35.4005 13.1254 34.4542 12.1791 34.4542 11.016C34.4542 9.85287 35.4005 8.90655 36.5636 8.90655Z" fill="#3C4858"/>
<path d="M49.6886 15.4692C52.1441 15.4692 54.1418 13.4715 54.1418 11.016C54.1418 8.56049 52.1441 6.56274 49.6886 6.56274C47.2331 6.56274 45.2354 8.56049 45.2354 11.016C45.2354 13.4715 47.2331 15.4692 49.6886 15.4692ZM49.6886 8.90655C50.8517 8.90655 51.798 9.85287 51.798 11.016C51.798 12.1791 50.8517 13.1254 49.6886 13.1254C48.5255 13.1254 47.5792 12.1791 47.5792 11.016C47.5792 9.85287 48.5255 8.90655 49.6886 8.90655Z" fill="#3C4858"/>
<path d="M10.3126 19.688C7.85712 19.688 5.85938 21.6857 5.85938 24.1412C5.85938 26.5967 7.85712 28.5945 10.3126 28.5945C12.7681 28.5945 14.7658 26.5967 14.7658 24.1412C14.7658 21.6857 12.7681 19.688 10.3126 19.688ZM10.3126 26.2507C9.1495 26.2507 8.20318 25.3043 8.20318 24.1412C8.20318 22.9781 9.1495 22.0318 10.3126 22.0318C11.4757 22.0318 12.422 22.9781 12.422 24.1412C12.422 25.3043 11.4757 26.2507 10.3126 26.2507Z" fill="#3C4858"/>
<path d="M20.1568 19.688C19.5096 19.688 18.9849 20.2128 18.9849 20.8599V27.4226C18.9849 28.0697 19.5096 28.5945 20.1568 28.5945H26.7194C27.3666 28.5945 27.8913 28.0697 27.8913 27.4226V20.8599C27.8913 20.2128 27.3666 19.688 26.7194 19.688H20.1568ZM25.5475 26.2507H21.3287V22.0318H25.5475V26.2507Z" fill="#3C4858"/>
<path d="M49.6886 28.5945C52.1441 28.5945 54.1418 26.5967 54.1418 24.1412C54.1418 21.6857 52.1441 19.688 49.6886 19.688C47.2331 19.688 45.2354 21.6857 45.2354 24.1412C45.2354 26.5967 47.2331 28.5945 49.6886 28.5945ZM49.6886 22.0318C50.8517 22.0318 51.798 22.9781 51.798 24.1412C51.798 25.3043 50.8517 26.2507 49.6886 26.2507C48.5255 26.2507 47.5792 25.3043 47.5792 24.1412C47.5792 22.9781 48.5255 22.0318 49.6886 22.0318Z" fill="#1C2D41"/>
<path d="M30.0005 2.36133C30.3087 2.36133 30.611 2.23605 30.8289 2.01797C31.0469 1.8 31.1724 1.49777 31.1724 1.18945C31.1724 0.880078 31.047 0.578906 30.8289 0.361055C30.611 0.143086 30.3087 0.0175781 30.0005 0.0175781C29.6923 0.0175781 29.3899 0.142969 29.172 0.361055C28.954 0.578906 28.8286 0.88125 28.8286 1.18945C28.8286 1.49648 28.9539 1.79883 29.172 2.01797C29.3899 2.23605 29.6923 2.36133 30.0005 2.36133Z" fill="#1C2D41"/>
</g>
<defs>
<clipPath id="clip0_44_516">
<rect width="60" height="60" fill="white"/>
</clipPath>
</defs>
</svg>
