<svg width="60" height="60" viewBox="0 0 60 60" fill="none" xmlns="http://www.w3.org/2000/svg">
<path d="M51.9141 58.8355H17.4609C16.1665 58.8355 15.1172 57.7862 15.1172 56.4917V12.8979C15.1172 11.6035 16.1665 10.5542 17.4609 10.5542H51.9141C53.2085 10.5542 54.2578 11.6035 54.2578 12.8979V56.4917C54.2578 57.7862 53.2085 58.8355 51.9141 58.8355Z" fill="#2DCA73"/>
<path d="M47.2266 54.148H12.7734C11.479 54.148 10.4297 53.0987 10.4297 51.8042V8.21045C10.4297 6.916 11.479 5.8667 12.7734 5.8667H47.2266C48.521 5.8667 49.5703 6.916 49.5703 8.21045V51.8042C49.5703 53.0987 48.521 54.148 47.2266 54.148Z" fill="#12B058"/>
<path d="M42.5317 49.4531H8.07861C6.78416 49.4531 5.73486 48.4038 5.73486 47.1094V3.51562C5.73486 2.22117 6.78416 1.17188 8.07861 1.17188H42.5317C43.8262 1.17188 44.8755 2.22117 44.8755 3.51562V47.1094C44.8755 48.4038 43.8261 49.4531 42.5317 49.4531Z" fill="white"/>
<path d="M23.5476 9.84375H12.2976V21.0938H23.5476V9.84375Z" fill="#2DCA73"/>
<path d="M42.5317 50.625H8.07861C6.1401 50.625 4.56299 49.0479 4.56299 47.1094V25.3515C4.56299 24.7043 5.08775 24.1796 5.73486 24.1796C6.38197 24.1796 6.90674 24.7043 6.90674 25.3515V47.1094C6.90674 47.7555 7.43244 48.2812 8.07861 48.2812H42.5317C43.1779 48.2812 43.7036 47.7555 43.7036 47.1094V3.51562C43.7036 2.86945 43.1779 2.34375 42.5317 2.34375H8.07861C7.43244 2.34375 6.90674 2.86945 6.90674 3.51562V15.4688C6.90674 16.116 6.38197 16.6406 5.73486 16.6406C5.08775 16.6406 4.56299 16.116 4.56299 15.4688V3.51562C4.56299 1.57711 6.1401 0 8.07861 0H42.5317C44.4702 0 46.0474 1.57711 46.0474 3.51562V47.1094C46.0474 49.0479 44.4702 50.625 42.5317 50.625Z" fill="#1C2D41"/>
<path d="M5.73486 21.8882C5.42666 21.8882 5.12432 21.7628 4.90635 21.5448C4.68838 21.3257 4.56299 21.0245 4.56299 20.7151C4.56299 20.4081 4.68826 20.1058 4.90635 19.8866C5.12432 19.6687 5.42666 19.5444 5.73486 19.5444C6.04307 19.5444 6.34541 19.6687 6.56326 19.8866C6.78123 20.1058 6.90674 20.4069 6.90674 20.7151C6.90674 21.0245 6.78135 21.3269 6.56326 21.5448C6.34529 21.7628 6.04295 21.8882 5.73486 21.8882Z" fill="#1C2D41"/>
<path d="M10.4292 55.3196C10.121 55.3196 9.81865 55.1954 9.6008 54.9762C9.38283 54.7583 9.25732 54.4571 9.25732 54.1477C9.25732 53.8395 9.38271 53.5372 9.6008 53.3192C9.81865 53.1012 10.121 52.9758 10.4292 52.9758C10.7387 52.9758 11.0397 53.1012 11.2577 53.3192C11.4757 53.5372 11.6011 53.8395 11.6011 54.1477C11.6011 54.4571 11.4758 54.7583 11.2577 54.9762C11.0397 55.1954 10.7387 55.3196 10.4292 55.3196Z" fill="#1C2D41"/>
<path d="M47.2266 55.3198H15.1172C14.4701 55.3198 13.9453 54.7952 13.9453 54.148C13.9453 53.5007 14.4701 52.9761 15.1172 52.9761H47.2266C47.8727 52.9761 48.3984 52.4504 48.3984 51.8042V5.8667C48.3984 5.21947 48.9232 4.69482 49.5703 4.69482C50.2174 4.69482 50.7422 5.21947 50.7422 5.8667V51.8042C50.7422 53.7427 49.1651 55.3198 47.2266 55.3198Z" fill="#1C2D41"/>
<path d="M51.9214 60H15.1245C14.4774 60 13.9526 59.4754 13.9526 58.8281C13.9526 58.1809 14.4774 57.6562 15.1245 57.6562H51.9214C52.5676 57.6562 53.0933 57.1305 53.0933 56.4844V10.5469C53.0933 9.89965 53.618 9.375 54.2652 9.375C54.9123 9.375 55.437 9.89965 55.437 10.5469V56.4844C55.437 58.4229 53.8599 60 51.9214 60Z" fill="#1C2D41"/>
<path d="M23.5474 22.2656H12.2974C11.6503 22.2656 11.1255 21.741 11.1255 21.0938V9.84375C11.1255 9.19652 11.6503 8.67188 12.2974 8.67188H23.5474C24.1945 8.67188 24.7192 9.19652 24.7192 9.84375V21.0938C24.7192 21.741 24.1945 22.2656 23.5474 22.2656ZM13.4692 19.9219H22.3755V11.0156H13.4692V19.9219Z" fill="#1C2D41"/>
<path d="M15.0042 33.5304C14.6934 33.5304 14.3954 33.4069 14.1756 33.1872L11.8984 30.91C11.4408 30.4524 11.4408 29.7103 11.8984 29.2527C12.3564 28.7952 13.0982 28.7951 13.5558 29.2527L15.0042 30.7013L18.1194 27.5861C18.5773 27.1285 19.319 27.1286 19.7768 27.5861C20.2344 28.0437 20.2344 28.7857 19.7768 29.2434L15.833 33.1872C15.613 33.4069 15.3151 33.5304 15.0042 33.5304Z" fill="#2DCA73"/>
<path d="M38.9771 31.5234H25.3052C24.6581 31.5234 24.1333 30.9988 24.1333 30.3516C24.1333 29.7043 24.6581 29.1797 25.3052 29.1797H38.9771C39.6242 29.1797 40.149 29.7043 40.149 30.3516C40.149 30.9988 39.6242 31.5234 38.9771 31.5234Z" fill="#1C2D41"/>
<path d="M38.313 11.0156H30.1099C29.4628 11.0156 28.938 10.491 28.938 9.84375C28.938 9.19652 29.4628 8.67188 30.1099 8.67188H38.313C38.9601 8.67188 39.4849 9.19652 39.4849 9.84375C39.4849 10.491 38.9601 11.0156 38.313 11.0156Z" fill="#1C2D41"/>
<path d="M38.313 16.6406H30.1099C29.4628 16.6406 28.938 16.116 28.938 15.4688C28.938 14.8215 29.4628 14.2969 30.1099 14.2969H38.313C38.9601 14.2969 39.4849 14.8215 39.4849 15.4688C39.4849 16.116 38.9601 16.6406 38.313 16.6406Z" fill="#1C2D41"/>
<path d="M38.313 22.2656H30.1099C29.4628 22.2656 28.938 21.741 28.938 21.0938C28.938 20.4465 29.4628 19.9219 30.1099 19.9219H38.313C38.9601 19.9219 39.4849 20.4465 39.4849 21.0938C39.4849 21.741 38.9601 22.2656 38.313 22.2656Z" fill="#1C2D41"/>
<path d="M15.0042 42.4799C14.6934 42.4799 14.3954 42.3564 14.1756 42.1366L11.8984 39.8595C11.4408 39.4018 11.4408 38.6598 11.8984 38.2022C12.3564 37.7447 13.0982 37.7446 13.5558 38.2022L15.0042 39.6507L18.1194 36.5356C18.5773 36.0779 19.319 36.0781 19.7768 36.5356C20.2344 36.9932 20.2344 37.7352 19.7768 38.1928L15.833 42.1366C15.613 42.3564 15.3151 42.4799 15.0042 42.4799Z" fill="#2DCA73"/>
<path d="M38.9771 40.4297H25.3052C24.6581 40.4297 24.1333 39.905 24.1333 39.2578C24.1333 38.6106 24.6581 38.0859 25.3052 38.0859H38.9771C39.6242 38.0859 40.149 38.6106 40.149 39.2578C40.149 39.905 39.6242 40.4297 38.9771 40.4297Z" fill="#1C2D41"/>
</svg>
