<svg width="60" height="60" viewBox="0 0 60 60" fill="none" xmlns="http://www.w3.org/2000/svg">
<path d="M46.1726 58.8281H3.51636C2.2219 58.8281 1.17261 57.7788 1.17261 56.4844V3.51562C1.17261 2.22117 2.2219 1.17188 3.51636 1.17188H46.1726C47.4671 1.17188 48.5164 2.22117 48.5164 3.51562V56.4844C48.5164 57.7788 47.4671 58.8281 46.1726 58.8281Z" fill="white"/>
<path d="M24.845 26.7188C30.1521 26.7188 34.4543 22.4165 34.4543 17.1094C34.4543 11.8023 30.1521 7.5 24.845 7.5C19.5379 7.5 15.2356 11.8023 15.2356 17.1094C15.2356 22.4165 19.5379 26.7188 24.845 26.7188Z" fill="#FFC212"/>
<path d="M27.8914 15.8789V16.6406C27.8914 18.3233 26.5272 19.6875 24.8445 19.6875C23.1618 19.6875 21.7976 18.3233 21.7976 16.6406V15.8789C21.7976 14.1962 23.1618 12.832 24.8445 12.832C26.5272 12.832 27.8914 14.1962 27.8914 15.8789Z" fill="#FFCDAC"/>
<path d="M24.8446 19.6875C21.8704 19.6875 19.3293 21.5352 18.3018 24.1445C20.0174 25.7408 22.3163 26.7188 24.8446 26.7188C27.3729 26.7188 29.6718 25.7408 31.3874 24.1445C30.3599 21.5352 27.8188 19.6875 24.8446 19.6875Z" fill="#0AAFFF"/>
<path d="M51.1611 18.8191L51.8307 17.6593C52.8663 15.8657 55.1597 15.2512 56.9533 16.2867C58.7469 17.3223 59.3614 19.6156 58.3259 21.4093L43.579 46.9518L37.0837 43.2018L43.4449 32.1839L51.1611 18.8191Z" fill="#2DCA73"/>
<path d="M56.9533 16.2868C55.1597 15.2512 52.8662 15.8657 51.8307 17.6594L50.0896 20.675L56.5849 24.425L58.3259 21.4094C59.3614 19.6158 58.7469 17.3223 56.9533 16.2868Z" fill="#12B058"/>
<path d="M43.5789 46.9519L36.0457 52.5L37.0837 43.2019L43.5789 46.9519Z" fill="#2DCA73"/>
<path d="M48.5164 46.6791C47.8693 46.6791 47.3445 47.2037 47.3445 47.8509V56.4844C47.3445 57.1305 46.8188 57.6562 46.1726 57.6562H3.51636C2.87019 57.6562 2.34448 57.1305 2.34448 56.4844V3.51562C2.34448 2.86945 2.87019 2.34375 3.51636 2.34375H46.1726C46.8188 2.34375 47.3445 2.86945 47.3445 3.51562V16.2598C47.3445 16.907 47.8693 17.4316 48.5164 17.4316C49.1635 17.4316 49.6883 16.907 49.6883 16.2598V3.51562C49.6883 1.57711 48.1111 0 46.1726 0H3.51636C1.57784 0 0.000732422 1.57711 0.000732422 3.51562V56.4844C0.000732422 58.4229 1.57784 60 3.51636 60H46.1726C48.1111 60 49.6883 58.4229 49.6883 56.4844V47.8509C49.6883 47.2037 49.1635 46.6791 48.5164 46.6791Z" fill="#1C2D41"/>
<path d="M35.6257 17.1094C35.6257 11.1646 30.7893 6.32812 24.8445 6.32812C18.8997 6.32812 14.0632 11.1646 14.0632 17.1094C14.0632 20.1934 15.3652 22.9787 17.4478 24.9456C17.4869 24.9873 17.5283 25.0268 17.5737 25.0628C19.4922 26.8181 22.0453 27.8905 24.8444 27.8905C27.6434 27.8905 30.1966 26.818 32.115 25.0628C32.1604 25.0268 32.2019 24.9872 32.2409 24.9456C34.3238 22.9787 35.6257 20.1934 35.6257 17.1094ZM24.8445 8.67188C29.4969 8.67188 33.282 12.4569 33.282 17.1094C33.282 18.9805 32.669 20.7105 31.6343 22.1113C30.7701 20.8295 29.5723 19.8326 28.1816 19.2171C28.7336 18.5038 29.0632 17.6102 29.0632 16.6406V15.8789C29.0632 13.5526 27.1708 11.6602 24.8445 11.6602C22.5182 11.6602 20.6257 13.5526 20.6257 15.8789V16.6406C20.6257 17.6102 20.9554 18.5038 21.5073 19.2171C20.1167 19.8326 18.9189 20.8295 18.0546 22.1113C17.02 20.7105 16.407 18.9805 16.407 17.1094C16.407 12.4569 20.192 8.67188 24.8445 8.67188ZM22.9695 16.6406V15.8789C22.9695 14.8451 23.8107 14.0039 24.8445 14.0039C25.8783 14.0039 26.7195 14.8451 26.7195 15.8789V16.6406C26.7195 17.6745 25.8783 18.5156 24.8445 18.5156C23.8107 18.5156 22.9695 17.6745 22.9695 16.6406ZM19.7479 23.828C20.7778 22.0016 22.6998 20.8594 24.8445 20.8594C26.9891 20.8594 28.9111 22.0016 29.9411 23.828C28.5239 24.9056 26.758 25.5469 24.8445 25.5469C22.9309 25.5469 21.1649 24.9056 19.7479 23.828Z" fill="#1C2D41"/>
<path d="M31.1726 51.3281H24.8445C24.1974 51.3281 23.6726 51.8528 23.6726 52.5C23.6726 53.1472 24.1974 53.6719 24.8445 53.6719H31.1726C31.8197 53.6719 32.3445 53.1472 32.3445 52.5C32.3445 51.8528 31.8197 51.3281 31.1726 51.3281Z" fill="#1C2D41"/>
<path d="M31.1726 44.7656H14.532C13.8849 44.7656 13.3601 45.2903 13.3601 45.9375C13.3601 46.5847 13.8849 47.1094 14.532 47.1094H31.1726C31.8197 47.1094 32.3445 46.5847 32.3445 45.9375C32.3445 45.2903 31.8197 44.7656 31.1726 44.7656Z" fill="#1C2D41"/>
<path d="M31.1726 38.2031H14.532C13.8849 38.2031 13.3601 38.7278 13.3601 39.375C13.3601 40.0222 13.8849 40.5469 14.532 40.5469H31.1726C31.8197 40.5469 32.3445 40.0222 32.3445 39.375C32.3445 38.7278 31.8197 38.2031 31.1726 38.2031Z" fill="#1C2D41"/>
<path d="M10.3554 31.984C10.1376 31.766 9.83525 31.6406 9.52588 31.6406C9.21756 31.6406 8.91521 31.766 8.69736 31.984C8.47939 32.202 8.354 32.5043 8.354 32.8125C8.354 33.1207 8.47928 33.423 8.69736 33.641C8.9165 33.859 9.21756 33.9844 9.52588 33.9844C9.83525 33.9844 10.1364 33.859 10.3554 33.641C10.5734 33.423 10.6989 33.1207 10.6989 32.8125C10.6989 32.5043 10.5735 32.202 10.3554 31.984Z" fill="#1C2D41"/>
<path d="M10.3554 38.5465C10.1364 38.3285 9.83525 38.2031 9.52588 38.2031C9.21756 38.2031 8.9165 38.3285 8.69736 38.5465C8.47939 38.7645 8.354 39.0668 8.354 39.375C8.354 39.6832 8.47928 39.9855 8.69736 40.2035C8.9165 40.4215 9.21756 40.5469 9.52588 40.5469C9.83525 40.5469 10.1364 40.4215 10.3554 40.2035C10.5734 39.9855 10.6989 39.6832 10.6989 39.375C10.6989 39.0668 10.5735 38.7645 10.3554 38.5465Z" fill="#1C2D41"/>
<path d="M9.52588 44.7656C9.21756 44.7656 8.9165 44.891 8.69736 45.109C8.47939 45.327 8.354 45.6293 8.354 45.9375C8.354 46.2457 8.47928 46.548 8.69736 46.766C8.91521 46.984 9.21756 47.1094 9.52588 47.1094C9.83525 47.1094 10.1376 46.984 10.3554 46.766C10.5734 46.548 10.6989 46.2457 10.6989 45.9375C10.6989 45.6293 10.5735 45.327 10.3554 45.109C10.1364 44.891 9.83525 44.7656 9.52588 44.7656Z" fill="#1C2D41"/>
<path d="M31.1726 31.6406H14.532C13.8849 31.6406 13.3601 32.1653 13.3601 32.8125C13.3601 33.4597 13.8849 33.9844 14.532 33.9844H31.1726C31.8197 33.9844 32.3445 33.4597 32.3445 32.8125C32.3445 32.1653 31.8197 31.6406 31.1726 31.6406Z" fill="#1C2D41"/>
<path d="M57.5393 15.2719C56.4009 14.6145 55.0745 14.4399 53.8045 14.7801C52.5346 15.1204 51.4731 15.9349 50.8159 17.0734L36.0688 42.6159C35.9881 42.7559 35.937 42.9112 35.9191 43.0719L34.881 52.37C34.8295 52.8326 35.0566 53.2821 35.4597 53.5149C35.6417 53.6199 35.8438 53.6719 36.0455 53.6719C36.2907 53.6719 36.5349 53.5952 36.7406 53.4437L44.2738 47.8955C44.404 47.7997 44.513 47.6779 44.5938 47.5379L59.3407 21.9954C60.6978 19.6451 59.8897 16.6289 57.5393 15.2719ZM38.0495 45.1127L41.4412 47.0709L37.5074 49.968L38.0495 45.1127ZM43.15 45.351L38.6846 42.7729L50.5188 22.2757L54.9842 24.8538L43.15 45.351ZM57.3111 20.8234L56.1559 22.8241L51.6905 20.246L52.8456 18.2452C53.1899 17.6489 53.7459 17.2223 54.411 17.0441C55.0764 16.8657 55.7711 16.9574 56.3673 17.3017C56.9637 17.646 57.3903 18.2019 57.5685 18.867C57.7468 19.5322 57.6554 20.227 57.3111 20.8234Z" fill="#1C2D41"/>
</svg>
